<svg width="90" height="94" viewBox="0 0 90 94" fill="none" xmlns="http://www.w3.org/2000/svg">
<path d="M1.52 72H4.44V86H1.52V72ZM6.28 86H3.36V83.4H6.18C6.79333 83.4 7.37333 83.32 7.92 83.16C8.46667 82.9867 8.94667 82.72 9.36 82.36C9.77333 82 10.0933 81.5467 10.32 81C10.56 80.44 10.68 79.7733 10.68 79C10.68 78.2267 10.56 77.5667 10.32 77.02C10.0933 76.46 9.77333 76 9.36 75.64C8.94667 75.28 8.46667 75.02 7.92 74.86C7.37333 74.6867 6.79333 74.6 6.18 74.6H3.36V72H6.28C7.74667 72 9.02667 72.2867 10.12 72.86C11.2267 73.4333 12.0867 74.2467 12.7 75.3C13.3133 76.34 13.62 77.5733 13.62 79C13.62 80.4267 13.3133 81.6667 12.7 82.72C12.0867 83.76 11.2267 84.5667 10.12 85.14C9.02667 85.7133 7.74667 86 6.28 86ZM17.4364 83.14C17.4364 83.4067 17.5031 83.64 17.6364 83.84C17.7697 84.0267 17.9497 84.1733 18.1764 84.28C18.4164 84.3733 18.6764 84.42 18.9564 84.42C19.3564 84.42 19.7164 84.34 20.0364 84.18C20.3564 84.0067 20.6164 83.7667 20.8164 83.46C21.0164 83.14 21.1164 82.76 21.1164 82.32L21.4364 83.52C21.4364 84.1067 21.2697 84.6 20.9364 85C20.6164 85.4 20.1964 85.7 19.6764 85.9C19.1697 86.1 18.6364 86.2 18.0764 86.2C17.5031 86.2 16.9697 86.0867 16.4764 85.86C15.9831 85.6333 15.5831 85.3067 15.2764 84.88C14.9831 84.44 14.8364 83.9067 14.8364 83.28C14.8364 82.3867 15.1497 81.68 15.7764 81.16C16.4031 80.64 17.2897 80.38 18.4364 80.38C19.0231 80.38 19.5364 80.44 19.9764 80.56C20.4297 80.68 20.8097 80.8267 21.1164 81C21.4231 81.1733 21.6431 81.34 21.7764 81.5V82.7C21.4164 82.4333 21.0097 82.2333 20.5564 82.1C20.1164 81.9667 19.6497 81.9 19.1564 81.9C18.7564 81.9 18.4297 81.9533 18.1764 82.06C17.9231 82.1533 17.7364 82.2933 17.6164 82.48C17.4964 82.6533 17.4364 82.8733 17.4364 83.14ZM16.4364 79.4L15.4764 77.64C15.9564 77.3867 16.5431 77.1467 17.2364 76.92C17.9297 76.68 18.7031 76.56 19.5564 76.56C20.3431 76.56 21.0431 76.6733 21.6564 76.9C22.2697 77.1267 22.7497 77.46 23.0964 77.9C23.4431 78.3267 23.6164 78.8533 23.6164 79.48V86H21.1164V80.02C21.1164 79.7667 21.0764 79.5533 20.9964 79.38C20.9164 79.1933 20.7897 79.04 20.6164 78.92C20.4564 78.8 20.2631 78.7133 20.0364 78.66C19.8097 78.6067 19.5564 78.58 19.2764 78.58C18.8497 78.58 18.4431 78.6267 18.0564 78.72C17.6697 78.8133 17.3364 78.9267 17.0564 79.06C16.7764 79.1933 16.5697 79.3067 16.4364 79.4ZM25.9661 70.4H28.4661V86H25.9661V70.4ZM31.8461 76.8H34.9461L30.9861 80.6L35.3461 86H32.2661L27.8861 80.6L31.8461 76.8ZM38.5497 83.14C38.5497 83.4067 38.6164 83.64 38.7497 83.84C38.883 84.0267 39.063 84.1733 39.2897 84.28C39.5297 84.3733 39.7897 84.42 40.0697 84.42C40.4697 84.42 40.8297 84.34 41.1497 84.18C41.4697 84.0067 41.7297 83.7667 41.9297 83.46C42.1297 83.14 42.2297 82.76 42.2297 82.32L42.5497 83.52C42.5497 84.1067 42.383 84.6 42.0497 85C41.7297 85.4 41.3097 85.7 40.7897 85.9C40.283 86.1 39.7497 86.2 39.1897 86.2C38.6164 86.2 38.083 86.0867 37.5897 85.86C37.0964 85.6333 36.6964 85.3067 36.3897 84.88C36.0964 84.44 35.9497 83.9067 35.9497 83.28C35.9497 82.3867 36.263 81.68 36.8897 81.16C37.5164 80.64 38.403 80.38 39.5497 80.38C40.1364 80.38 40.6497 80.44 41.0897 80.56C41.543 80.68 41.923 80.8267 42.2297 81C42.5364 81.1733 42.7564 81.34 42.8897 81.5V82.7C42.5297 82.4333 42.123 82.2333 41.6697 82.1C41.2297 81.9667 40.763 81.9 40.2697 81.9C39.8697 81.9 39.543 81.9533 39.2897 82.06C39.0364 82.1533 38.8497 82.2933 38.7297 82.48C38.6097 82.6533 38.5497 82.8733 38.5497 83.14ZM37.5497 79.4L36.5897 77.64C37.0697 77.3867 37.6564 77.1467 38.3497 76.92C39.043 76.68 39.8164 76.56 40.6697 76.56C41.4564 76.56 42.1564 76.6733 42.7697 76.9C43.383 77.1267 43.863 77.46 44.2097 77.9C44.5564 78.3267 44.7297 78.8533 44.7297 79.48V86H42.2297V80.02C42.2297 79.7667 42.1897 79.5533 42.1097 79.38C42.0297 79.1933 41.903 79.04 41.7297 78.92C41.5697 78.8 41.3764 78.7133 41.1497 78.66C40.923 78.6067 40.6697 78.58 40.3897 78.58C39.963 78.58 39.5564 78.6267 39.1697 78.72C38.783 78.8133 38.4497 78.9267 38.1697 79.06C37.8897 79.1933 37.683 79.3067 37.5497 79.4ZM47.0794 70.4H49.5794V86H47.0794V70.4ZM52.9594 76.8H56.0594L52.0994 80.6L56.4594 86H53.3794L48.9994 80.6L52.9594 76.8ZM61.87 86.2C60.87 86.2 59.9967 86 59.25 85.6C58.5033 85.2 57.9233 84.6467 57.51 83.94C57.11 83.22 56.91 82.3733 56.91 81.4C56.91 80.4133 57.11 79.5667 57.51 78.86C57.9233 78.14 58.5033 77.5867 59.25 77.2C59.9967 76.8 60.8767 76.6 61.89 76.6C62.9033 76.6 63.7633 76.7867 64.47 77.16C65.19 77.52 65.7367 78.0533 66.11 78.76C66.4833 79.4533 66.67 80.2933 66.67 81.28C66.67 81.4 66.6633 81.5267 66.65 81.66C66.65 81.7933 66.6433 81.9 66.63 81.98H58.39V80.38H64.37L63.67 81.3C63.7233 81.22 63.77 81.1133 63.81 80.98C63.8633 80.8333 63.89 80.7133 63.89 80.62C63.89 80.1667 63.8033 79.78 63.63 79.46C63.47 79.14 63.2367 78.8867 62.93 78.7C62.6233 78.5133 62.2633 78.42 61.85 78.42C61.3433 78.42 60.9167 78.5333 60.57 78.76C60.2367 78.9733 59.9767 79.3 59.79 79.74C59.6167 80.1667 59.5233 80.7 59.51 81.34C59.51 81.9533 59.5967 82.4733 59.77 82.9C59.9567 83.3267 60.23 83.6533 60.59 83.88C60.95 84.1067 61.3833 84.22 61.89 84.22C62.4633 84.22 62.95 84.1133 63.35 83.9C63.7633 83.6733 64.1033 83.34 64.37 82.9L66.63 83.6C66.15 84.4667 65.51 85.12 64.71 85.56C63.9233 85.9867 62.9767 86.2 61.87 86.2ZM72.9638 86.2C71.9638 86.2 71.0904 86 70.3438 85.6C69.5971 85.2 69.0171 84.6467 68.6038 83.94C68.2038 83.22 68.0037 82.3733 68.0037 81.4C68.0037 80.4133 68.2038 79.5667 68.6038 78.86C69.0171 78.14 69.5971 77.5867 70.3438 77.2C71.0904 76.8 71.9704 76.6 72.9838 76.6C73.9971 76.6 74.8571 76.7867 75.5638 77.16C76.2838 77.52 76.8304 78.0533 77.2038 78.76C77.5771 79.4533 77.7638 80.2933 77.7638 81.28C77.7638 81.4 77.7571 81.5267 77.7438 81.66C77.7438 81.7933 77.7371 81.9 77.7238 81.98H69.4838V80.38H75.4638L74.7638 81.3C74.8171 81.22 74.8638 81.1133 74.9038 80.98C74.9571 80.8333 74.9838 80.7133 74.9838 80.62C74.9838 80.1667 74.8971 79.78 74.7238 79.46C74.5638 79.14 74.3304 78.8867 74.0238 78.7C73.7171 78.5133 73.3571 78.42 72.9438 78.42C72.4371 78.42 72.0104 78.5333 71.6638 78.76C71.3304 78.9733 71.0704 79.3 70.8838 79.74C70.7104 80.1667 70.6171 80.7 70.6038 81.34C70.6038 81.9533 70.6904 82.4733 70.8638 82.9C71.0504 83.3267 71.3238 83.6533 71.6838 83.88C72.0438 84.1067 72.4771 84.22 72.9838 84.22C73.5571 84.22 74.0438 84.1133 74.4438 83.9C74.8571 83.6733 75.1971 83.34 75.4638 82.9L77.7238 83.6C77.2438 84.4667 76.6038 85.12 75.8038 85.56C75.0171 85.9867 74.0704 86.2 72.9638 86.2ZM85.6575 80.4C85.6575 79.7867 85.5375 79.32 85.2975 79C85.0575 78.68 84.6708 78.52 84.1375 78.52C83.7775 78.52 83.4575 78.6 83.1775 78.76C82.8975 78.9067 82.6842 79.12 82.5375 79.4C82.3908 79.68 82.3175 80.0133 82.3175 80.4V86H79.7175V76.8H82.3175V78.2C82.5975 77.68 82.9642 77.2867 83.4175 77.02C83.8842 76.74 84.4442 76.6 85.0975 76.6C86.1908 76.6 87.0042 76.9133 87.5375 77.54C88.0708 78.1533 88.3375 79.0133 88.3375 80.12V86H85.6575V80.4Z" fill="#3628B2"/>
<path d="M24.898 21.2607C21.3121 29.5582 28.0946 57.483 29.1669 57.1057L20.1168 49.1615L19.0923 22.6739L24.898 21.2607Z" fill="#EAEAEA"/>
<path d="M56.2796 60.7073H33.7739C29.9489 60.7073 26.2879 59.2941 23.4636 56.7284C22.6132 55.9566 21.8756 55.2465 21.2711 54.6188C19.946 53.2433 18.9522 51.5728 18.3955 49.7926C16.7973 44.6817 16.6811 38.5074 16.5684 32.539C16.548 31.4379 16.5275 30.354 16.4967 29.294C16.3772 25.1916 18.4502 21.4459 21.9029 19.5181C22.9889 18.911 24.0168 18.5783 24.9594 18.5199C25.9976 18.4548 26.8855 19.2506 26.9436 20.2933C27.0051 21.3327 26.2162 22.2279 25.178 22.2862C24.9662 22.3 24.495 22.3857 23.7231 22.8145C21.5033 24.0562 20.1714 26.495 20.2465 29.1843C20.2773 30.2545 20.2978 31.3521 20.3183 32.4669C20.4275 38.1713 20.5402 44.0677 21.9746 48.6641C22.3571 49.8887 23.0469 51.0412 23.9656 51.9982C24.512 52.5642 25.1882 53.2159 25.9737 53.9294C28.1082 55.8674 30.8744 56.9342 33.767 56.9342H56.2727C59.5786 56.9342 62.6351 55.5381 64.6569 53.1061C65.1453 52.5196 65.6063 51.8576 66.0332 51.1372C66.6103 50.1596 66.9689 49.0414 67.068 47.8992L68.615 30.2716C68.9565 26.3853 66.5011 22.8728 62.7786 21.9192L62.6761 21.8918C61.6687 21.6448 61.0505 20.6226 61.2964 19.6107C61.5423 18.5988 62.56 17.978 63.5675 18.225L63.7075 18.2593C69.2263 19.6725 72.8634 24.8623 72.358 30.6009L70.811 48.2285C70.6607 49.9298 70.1279 51.6003 69.2639 53.0615C68.7346 53.9568 68.1574 54.7835 67.5393 55.5244C64.8037 58.8173 60.6953 60.7073 56.2727 60.7073H56.2796Z" fill="#3129BA"/>
<path d="M34.1496 39.0734C35.6509 39.0734 36.868 37.851 36.868 36.343C36.868 34.835 35.6509 33.6126 34.1496 33.6126C32.6482 33.6126 31.4312 34.835 31.4312 36.343C31.4312 37.851 32.6482 39.0734 34.1496 39.0734Z" fill="#C667E9"/>
<path d="M43.2612 39.0734C44.7625 39.0734 45.9796 37.851 45.9796 36.343C45.9796 34.835 44.7625 33.6126 43.2612 33.6126C41.7598 33.6126 40.5427 34.835 40.5427 36.343C40.5427 37.851 41.7598 39.0734 43.2612 39.0734Z" fill="#C667E9"/>
<path d="M53.1889 39.0734C54.6903 39.0734 55.9073 37.851 55.9073 36.343C55.9073 34.835 54.6903 33.6126 53.1889 33.6126C51.6875 33.6126 50.4705 34.835 50.4705 36.343C50.4705 37.851 51.6875 39.0734 53.1889 39.0734Z" fill="#C667E9"/>
<path d="M53.1889 48.0878C54.6903 48.0878 55.9073 46.8654 55.9073 45.3574C55.9073 43.8495 54.6903 42.627 53.1889 42.627C51.6875 42.627 50.4705 43.8495 50.4705 45.3574C50.4705 46.8654 51.6875 48.0878 53.1889 48.0878Z" fill="#C667E9"/>
<path d="M43.3978 48.0878C44.8991 48.0878 46.1162 46.8654 46.1162 45.3574C46.1162 43.8495 44.8991 42.627 43.3978 42.627C41.8964 42.627 40.6793 43.8495 40.6793 45.3574C40.6793 46.8654 41.8964 48.0878 43.3978 48.0878Z" fill="#C667E9"/>
<path d="M34.1496 48.0878C35.6509 48.0878 36.868 46.8654 36.868 45.3574C36.868 43.8495 35.6509 42.627 34.1496 42.627C32.6482 42.627 31.4312 43.8495 31.4312 45.3574C31.4312 46.8654 32.6482 48.0878 34.1496 48.0878Z" fill="#C667E9"/>
<path d="M35.1263 27.1845C34.153 27.1845 33.33 26.4264 33.2617 25.4351C33.2002 24.5364 32.6743 16.5716 33.2992 13.6423C33.9618 10.5449 35.4644 8.05457 37.6467 6.44583C39.6002 5.00517 42.0044 4.30542 44.6033 4.41861C50.3578 4.66902 55.1766 8.7063 55.8118 13.8035C55.9996 15.3128 55.8425 19.2986 55.8254 19.7479C55.7845 20.753 54.9614 21.5488 53.9574 21.5488H42.8616C41.8302 21.5488 40.9901 20.7084 40.9901 19.6691C40.9901 18.6297 41.8268 17.7893 42.8616 17.7893H52.1439C52.1747 16.3898 52.1781 14.8806 52.1029 14.2666C51.6522 10.6375 47.8545 8.3187 44.4462 8.16777C42.6157 8.08888 38.2204 8.53822 36.9603 14.4278C36.5709 16.2458 36.7758 21.9844 36.9978 25.1744C37.0695 26.2103 36.2909 27.1056 35.2629 27.1776C35.2185 27.1776 35.1741 27.1811 35.1332 27.1811L35.1263 27.1845Z" fill="#3129BA"/>
</svg>
