<svg width="67" height="65" viewBox="0 0 67 65" fill="none" xmlns="http://www.w3.org/2000/svg">
<path d="M13.898 21.2606C10.3121 29.5582 17.0946 57.483 18.1669 57.1057L9.11682 49.1615L8.09229 22.6739L13.898 21.2606Z" fill="#EAEAEA"/>
<path d="M45.2796 60.7073H22.7739C18.9489 60.7073 15.2879 59.2941 12.4636 56.7284C11.6132 55.9566 10.8756 55.2466 10.2711 54.6188C8.94601 53.2433 7.9522 51.5729 7.39554 49.7926C5.79726 44.6817 5.68114 38.5074 5.56844 32.539C5.54795 31.4379 5.52746 30.354 5.49673 29.2941C5.3772 25.1916 7.45018 21.4459 10.9029 19.5181C11.9889 18.911 13.0168 18.5783 13.9594 18.52C14.9976 18.4548 15.8855 19.2506 15.9436 20.2933C16.0051 21.3327 15.2162 22.2279 14.178 22.2863C13.9662 22.3 13.495 22.3857 12.7231 22.8145C10.5033 24.0562 9.1714 26.4951 9.24654 29.1843C9.27727 30.2545 9.29776 31.3521 9.31825 32.4669C9.42754 38.1713 9.54024 44.0677 10.9746 48.6641C11.3571 49.8887 12.0469 51.0412 12.9656 51.9982C13.512 52.5642 14.1882 53.2159 14.9737 53.9294C17.1082 55.8674 19.8744 56.9342 22.767 56.9342H45.2727C48.5786 56.9342 51.6351 55.5381 53.6569 53.1061C54.1453 52.5196 54.6063 51.8576 55.0332 51.1372C55.6103 50.1596 55.9689 49.0414 56.068 47.8992L57.615 30.2716C57.9565 26.3853 55.5011 22.8728 51.7786 21.9192L51.6761 21.8918C50.6687 21.6448 50.0505 20.6226 50.2964 19.6107C50.5423 18.5989 51.56 17.978 52.5675 18.225L52.7075 18.2593C58.2263 19.6725 61.8634 24.8623 61.358 30.6009L59.811 48.2285C59.6607 49.9298 59.1279 51.6003 58.2639 53.0615C57.7346 53.9568 57.1574 54.7835 56.5393 55.5244C53.8037 58.8173 49.6953 60.7073 45.2727 60.7073H45.2796Z" fill="white"/>
<path d="M23.1496 39.0734C24.6509 39.0734 25.868 37.851 25.868 36.343C25.868 34.835 24.6509 33.6126 23.1496 33.6126C21.6482 33.6126 20.4312 34.835 20.4312 36.343C20.4312 37.851 21.6482 39.0734 23.1496 39.0734Z" fill="#C667E9"/>
<path d="M32.2612 39.0734C33.7625 39.0734 34.9796 37.851 34.9796 36.343C34.9796 34.835 33.7625 33.6126 32.2612 33.6126C30.7598 33.6126 29.5427 34.835 29.5427 36.343C29.5427 37.851 30.7598 39.0734 32.2612 39.0734Z" fill="#C667E9"/>
<path d="M42.1889 39.0734C43.6903 39.0734 44.9073 37.851 44.9073 36.343C44.9073 34.835 43.6903 33.6126 42.1889 33.6126C40.6875 33.6126 39.4705 34.835 39.4705 36.343C39.4705 37.851 40.6875 39.0734 42.1889 39.0734Z" fill="#C667E9"/>
<path d="M42.1889 48.0878C43.6903 48.0878 44.9073 46.8654 44.9073 45.3574C44.9073 43.8495 43.6903 42.627 42.1889 42.627C40.6875 42.627 39.4705 43.8495 39.4705 45.3574C39.4705 46.8654 40.6875 48.0878 42.1889 48.0878Z" fill="#C667E9"/>
<path d="M32.3978 48.0878C33.8991 48.0878 35.1162 46.8654 35.1162 45.3574C35.1162 43.8495 33.8991 42.627 32.3978 42.627C30.8964 42.627 29.6793 43.8495 29.6793 45.3574C29.6793 46.8654 30.8964 48.0878 32.3978 48.0878Z" fill="#C667E9"/>
<path d="M23.1496 48.0878C24.6509 48.0878 25.868 46.8654 25.868 45.3574C25.868 43.8495 24.6509 42.627 23.1496 42.627C21.6482 42.627 20.4312 43.8495 20.4312 45.3574C20.4312 46.8654 21.6482 48.0878 23.1496 48.0878Z" fill="#C667E9"/>
<path d="M24.1263 27.1845C23.153 27.1845 22.33 26.4265 22.2617 25.4351C22.2002 24.5364 21.6743 16.5716 22.2992 13.6423C22.9618 10.5449 24.4644 8.05457 26.6467 6.44584C28.6002 5.00517 31.0044 4.30543 33.6033 4.41862C39.3578 4.66902 44.1766 8.70631 44.8118 13.8035C44.9996 15.3128 44.8425 19.2986 44.8254 19.7479C44.7845 20.753 43.9614 21.5488 42.9574 21.5488H31.8616C30.8302 21.5488 29.9901 20.7084 29.9901 19.6691C29.9901 18.6297 30.8268 17.7893 31.8616 17.7893H41.1439C41.1747 16.3898 41.1781 14.8806 41.1029 14.2666C40.6522 10.6375 36.8545 8.3187 33.4462 8.16778C31.6157 8.08888 27.2204 8.53823 25.9603 14.4278C25.5709 16.2458 25.7758 21.9844 25.9978 25.1744C26.0695 26.2104 25.2909 27.1056 24.2629 27.1777C24.2185 27.1777 24.1741 27.1811 24.1332 27.1811L24.1263 27.1845Z" fill="white"/>
</svg>
