<svg width="24" height="24" viewBox="0 0 24 24" fill="none" xmlns="http://www.w3.org/2000/svg">
<path d="M11.5417 0C9.25895 0 7.02748 0.676907 5.12947 1.94512C3.23145 3.21334 1.75212 5.0159 0.878562 7.12486C0.00500086 9.23383 -0.223563 11.5545 0.221775 13.7933C0.667113 16.0322 1.76635 18.0887 3.38048 19.7029C4.99461 21.317 7.05114 22.4162 9.29 22.8616C11.5289 23.3069 13.8495 23.0783 15.9585 22.2048C18.0674 21.3312 19.87 19.8519 21.1382 17.9539C22.4064 16.0559 23.0833 13.8244 23.0833 11.5417C23.0797 8.48174 21.8626 5.54816 19.6989 3.38446C17.5352 1.22076 14.6016 0.00360989 11.5417 0ZM16.7879 12.5909H12.5909V16.7879C12.5909 17.0662 12.4804 17.333 12.2836 17.5298C12.0868 17.7266 11.8199 17.8371 11.5417 17.8371C11.2634 17.8371 10.9965 17.7266 10.7997 17.5298C10.603 17.333 10.4924 17.0662 10.4924 16.7879V12.5909H6.29546C6.01718 12.5909 5.7503 12.4804 5.55353 12.2836C5.35676 12.0868 5.24622 11.8199 5.24622 11.5417C5.24622 11.2634 5.35676 10.9965 5.55353 10.7997C5.7503 10.603 6.01718 10.4924 6.29546 10.4924H10.4924V6.29545C10.4924 6.01718 10.603 5.7503 10.7997 5.55353C10.9965 5.35676 11.2634 5.24621 11.5417 5.24621C11.8199 5.24621 12.0868 5.35676 12.2836 5.55353C12.4804 5.7503 12.5909 6.01718 12.5909 6.29545V10.4924H16.7879C17.0662 10.4924 17.333 10.603 17.5298 10.7997C17.7266 10.9965 17.8371 11.2634 17.8371 11.5417C17.8371 11.8199 17.7266 12.0868 17.5298 12.2836C17.333 12.4804 17.0662 12.5909 16.7879 12.5909Z" fill="#B1B1B1"/>
</svg>
