<svg width="18" height="23" viewBox="0 0 18 23" fill="none" xmlns="http://www.w3.org/2000/svg">
<path d="M2.57603 0C1.89348 0.00183668 1.23949 0.237222 0.756847 0.654762C0.274207 1.0723 0.00212304 1.63808 0 2.22857V20.0571C0 21.2829 1.15921 22.2857 2.57603 22.2857H15.424C16.8408 22.2857 18 21.2829 18 20.0571V4.94464H16.2853C11.5921 4.88893 12.3247 5.59232 12.2764 1.48339V0H2.57603ZM13.492 10.3977C13.714 10.406 13.9237 10.4881 14.0774 10.627C14.2311 10.7658 14.3169 10.9506 14.3169 11.1429C14.3169 11.3351 14.2311 11.5199 14.0774 11.6588C13.9237 11.7976 13.714 11.8797 13.492 11.888H9.86136V15.0289C9.85176 15.221 9.75681 15.4024 9.59633 15.5354C9.43584 15.6684 9.22221 15.7426 9 15.7426C8.77779 15.7426 8.56416 15.6684 8.40367 15.5354C8.24319 15.4024 8.14824 15.221 8.13864 15.0289V11.888H4.50805C4.28605 11.8797 4.07632 11.7976 3.92263 11.6588C3.76893 11.5199 3.68313 11.3351 3.68313 11.1429C3.68313 10.9506 3.76893 10.7658 3.92263 10.627C4.07632 10.4881 4.28605 10.406 4.50805 10.3977H8.13864V7.25679C8.14824 7.06473 8.24319 6.88329 8.40367 6.75032C8.56416 6.61736 8.77779 6.54314 9 6.54314C9.22221 6.54314 9.43584 6.61736 9.59633 6.75032C9.75681 6.88329 9.85176 7.06473 9.86136 7.25679V10.3977H13.492Z" fill="#B1B1B1"/>
<path d="M13.9991 0.431885V3.46135H17.5009L13.9991 0.431885Z" fill="#B1B1B1"/>
</svg>
