<svg width="22" height="24" viewBox="0 0 22 24" fill="none" xmlns="http://www.w3.org/2000/svg">
<path fill-rule="evenodd" clip-rule="evenodd" d="M14.9015 5.32197C14.9015 6.73345 14.3408 8.08711 13.3427 9.08517C12.3447 10.0832 10.991 10.6439 9.57955 10.6439C8.16807 10.6439 6.81441 10.0832 5.81635 9.08517C4.81828 8.08711 4.25758 6.73345 4.25758 5.32197C4.25758 3.9105 4.81828 2.55683 5.81635 1.55877C6.81441 0.560706 8.16807 0 9.57955 0C10.991 0 12.3447 0.560706 13.3427 1.55877C14.3408 2.55683 14.9015 3.9105 14.9015 5.32197ZM7.45076 12.7727C5.47469 12.7727 3.57957 13.5577 2.18228 14.955C0.784988 16.3523 0 18.2474 0 20.2235C0 21.0704 0.336424 21.8826 0.935262 22.4814C1.5341 23.0802 2.3463 23.4167 3.19318 23.4167H11.0803C11.5391 23.4167 11.8009 22.8547 11.5625 22.4608C10.9598 21.4651 10.6421 20.323 10.6439 19.1591C10.6431 18.1318 10.8905 17.1195 11.3649 16.2083C11.8393 15.2971 12.5267 14.5139 13.3688 13.9255C13.7562 13.654 13.7232 13.0324 13.2613 12.9356C12.761 12.8291 12.2405 12.7727 11.7083 12.7727H7.45076ZM17.0303 14.9015C17.3126 14.9015 17.5833 15.0137 17.7829 15.2133C17.9826 15.4129 18.0947 15.6836 18.0947 15.9659V18.0947H20.2235C20.5058 18.0947 20.7765 18.2068 20.9761 18.4065C21.1757 18.6061 21.2879 18.8768 21.2879 19.1591C21.2879 19.4414 21.1757 19.7121 20.9761 19.9117C20.7765 20.1113 20.5058 20.2235 20.2235 20.2235H18.0947V22.3523C18.0947 22.6346 17.9826 22.9053 17.7829 23.1049C17.5833 23.3045 17.3126 23.4167 17.0303 23.4167C16.748 23.4167 16.4773 23.3045 16.2777 23.1049C16.0781 22.9053 15.9659 22.6346 15.9659 22.3523V20.2235H13.8371C13.5548 20.2235 13.2841 20.1113 13.0845 19.9117C12.8849 19.7121 12.7727 19.4414 12.7727 19.1591C12.7727 18.8768 12.8849 18.6061 13.0845 18.4065C13.2841 18.2068 13.5548 18.0947 13.8371 18.0947H15.9659V15.9659C15.9659 15.6836 16.0781 15.4129 16.2777 15.2133C16.4773 15.0137 16.748 14.9015 17.0303 14.9015Z" fill="#B1B1B1"/>
</svg>
