<svg width="22" height="22" viewBox="0 0 22 22" fill="none" xmlns="http://www.w3.org/2000/svg">
<path d="M8.89899 16.8153V17.1499C8.89899 18.3095 9.83949 19.25 11 19.25V19.25C12.1605 19.25 13.101 18.3095 13.101 17.149V16.8144" stroke="#A2A2A7" stroke-width="1.3" stroke-linecap="round" stroke-linejoin="round"/>
<path d="M12.6802 5.27175V4.43025C12.6802 3.50258 11.9286 2.75 11 2.75V2.75C10.0714 2.75 9.31973 3.50258 9.31973 4.43025V5.27175" stroke="#A2A2A7" stroke-width="1.3" stroke-linecap="round" stroke-linejoin="round"/>
<path fill-rule="evenodd" clip-rule="evenodd" d="M6.01607 9.33903V9.33903C6.01607 7.04461 7.87599 5.18561 10.1695 5.18561H11.8314C14.1258 5.18561 15.9848 7.04552 15.9848 9.33903V9.33903V11.9029C15.9848 12.3888 16.1782 12.8554 16.522 13.1991L17.1096 13.7867C17.4533 14.1304 17.6467 14.597 17.6467 15.0829V15.0829C17.6467 16.0399 16.8712 16.8154 15.9142 16.8154H6.08666C5.12966 16.8154 4.35416 16.0399 4.35416 15.0829V15.0829C4.35416 14.597 4.54757 14.1304 4.89132 13.7867L5.47891 13.1991C5.82266 12.8554 6.01607 12.3888 6.01607 11.9029V9.33903Z" stroke="#A2A2A7" stroke-width="1.3" stroke-linecap="round" stroke-linejoin="round"/>
</svg>
