<svg width="16" height="16" viewBox="0 0 16 16" fill="none" xmlns="http://www.w3.org/2000/svg">
<path d="M15.75 2.79004V4.48316H0V2.79004C0 1.86191 0.759375 1.10254 1.6875 1.10254H3.65625V2.76754C3.65625 3.07691 3.90937 3.33004 4.21875 3.33004C4.52812 3.33004 4.78125 3.07691 4.78125 2.76754V1.10254H10.9688V2.76754C10.9688 3.07691 11.2219 3.33004 11.5312 3.33004C11.8406 3.33004 12.0938 3.07691 12.0938 2.76754V1.10254H14.0625C14.9906 1.10254 15.75 1.86191 15.75 2.79004ZM11.25 11.2388H15.4069L10.6875 15.4463V11.8013C10.6875 11.4919 10.9406 11.2388 11.25 11.2388Z" fill="#C2C2C2"/>
<path d="M15.75 5.60813V10.1137H11.25C10.3219 10.1137 9.5625 10.8731 9.5625 11.8012V15.75H1.6875C0.759375 15.75 0 14.9906 0 14.0625V5.60813H15.75ZM4.78125 0.5625V1.1025H3.65625V0.5625C3.65625 0.253125 3.90937 0 4.21875 0C4.52812 0 4.78125 0.253125 4.78125 0.5625ZM12.0938 0.5625V1.1025H10.9688V0.5625C10.9688 0.253125 11.2219 0 11.5312 0C11.8406 0 12.0938 0.253125 12.0938 0.5625Z" fill="#C2C2C2"/>
</svg>
