<svg width="29" height="25" viewBox="0 0 29 25" fill="none" xmlns="http://www.w3.org/2000/svg">
<path d="M14.5 15.5C14.5 17.5613 14.4257 19.2175 12.4998 20.5" stroke="#4B5B98"/>
<path d="M14.574 9.28271C14.5145 5.83964 14.4433 4.01248 15.9998 3.5" stroke="#4B5B98"/>
<rect x="0.5" y="0.5" width="28" height="24" rx="3.5" stroke="#4B5B98"/>
<rect x="3.5" y="3.5" width="22" height="17" rx="1.5" stroke="#4B5B98"/>
<path d="M3.5 7.5H9C9.82843 7.5 10.5 8.17157 10.5 9V15C10.5 15.8284 9.82843 16.5 9 16.5H3.5V7.5Z" stroke="#4B5B98"/>
<path d="M3.5 12.5H10.5V15C10.5 15.8284 9.82843 16.5 9 16.5H3.5V12.5Z" stroke="#4B5B98"/>
<path d="M10 9H19M19 15H10" stroke="#4B5B98"/>
<path d="M18.5 12.5H25.5V16.5H20C19.1716 16.5 18.5 15.8284 18.5 15V12.5Z" stroke="#4B5B98"/>
<path d="M18.5 9C18.5 8.17157 19.1716 7.5 20 7.5H25.5V16.5H20C19.1716 16.5 18.5 15.8284 18.5 15V9Z" stroke="#4B5B98"/>
</svg>
