<svg width="13" height="15" viewBox="0 0 13 15" fill="none" xmlns="http://www.w3.org/2000/svg">
<path d="M11.0983 2.70389C8.56207 0.082427 4.43751 0.082427 1.90132 2.70389C-0.633774 5.32536 -0.633774 9.5906 1.90132 12.2121C3.16942 13.5225 4.83473 14.1774 6.50007 14.1774C8.16541 14.1774 9.83016 13.5225 11.0983 12.2121C13.6339 9.59062 13.6339 5.32536 11.0983 2.70389ZM9.18202 9.43877C9.3939 9.65783 9.3939 10.0119 9.18202 10.231C9.13176 10.2831 9.07204 10.3244 9.00628 10.3526C8.94053 10.3807 8.87005 10.3952 8.79887 10.3951C8.7277 10.3952 8.65721 10.3807 8.59146 10.3526C8.52571 10.3244 8.46599 10.2831 8.41573 10.231L6.50004 8.24988L4.5849 10.2304C4.48327 10.3354 4.34546 10.3945 4.20175 10.3946C4.13058 10.3946 4.06009 10.3802 3.99434 10.352C3.92859 10.3238 3.86887 10.2825 3.8186 10.2304C3.60672 10.0113 3.60672 9.6567 3.8186 9.4382L5.73375 7.45769L3.81807 5.47718C3.60619 5.25812 3.60619 4.90348 3.81807 4.68498C4.02942 4.46593 4.37246 4.46593 4.58434 4.68498L6.50002 6.66549L8.4157 4.68498C8.62758 4.46593 8.97009 4.46593 9.18197 4.68498C9.39385 4.90348 9.39385 5.25812 9.18197 5.47718L7.26629 7.45769L9.18202 9.43877Z" fill="#B1B1B1"/>
</svg>
