<svg width="13" height="13" viewBox="0 0 13 13" fill="none" xmlns="http://www.w3.org/2000/svg">
<path d="M6.41667 1.31251C5.29179 1.31251 4.19217 1.64607 3.25686 2.27102C2.32156 2.89597 1.59258 3.78424 1.1621 4.82349C0.731631 5.86275 0.618999 7.00632 0.838453 8.10958C1.05791 9.21285 1.59959 10.2263 2.395 11.0217C3.19041 11.8171 4.20383 12.3588 5.30709 12.5782C6.41036 12.7977 7.55393 12.685 8.59318 12.2546C9.63244 11.8241 10.5207 11.0951 11.1457 10.1598C11.7706 9.22451 12.1042 8.12489 12.1042 7.00001C12.1025 5.49211 11.5027 4.04646 10.4365 2.98021C9.37022 1.91397 7.92457 1.3142 6.41667 1.31251ZM9.14142 8.36209C9.10511 8.43482 9.04925 8.496 8.98011 8.53876C8.91098 8.58152 8.8313 8.60417 8.75 8.60417C8.68235 8.60427 8.61561 8.58849 8.55517 8.55809L6.22184 7.39142C6.14895 7.35525 6.08762 7.29944 6.04474 7.23028C6.00187 7.16113 5.97916 7.08137 5.97917 7.00001V4.08334C5.97917 3.96731 6.02526 3.85603 6.10731 3.77398C6.18936 3.69193 6.30064 3.64584 6.41667 3.64584C6.5327 3.64584 6.64398 3.69193 6.72603 3.77398C6.80808 3.85603 6.85417 3.96731 6.85417 4.08334V6.72934L8.94542 7.77526C9.04923 7.82709 9.12819 7.91803 9.16495 8.02808C9.20171 8.13813 9.19324 8.25828 9.14142 8.36209ZM2.91667 5.56086e-06C2.79045 5.56086e-06 2.66764 0.0409427 2.56667 0.116672L0.233336 1.86667C0.172052 1.91263 0.120422 1.97022 0.0813923 2.03613C0.0423628 2.10205 0.0166987 2.17501 0.00586518 2.25084C-0.0160141 2.404 0.0238433 2.55957 0.116669 2.68334C0.209495 2.80711 0.347685 2.88893 0.50084 2.91081C0.653995 2.93269 0.809568 2.89283 0.933336 2.80001L3.26667 1.05001C3.36461 0.976547 3.43696 0.874132 3.47347 0.75727C3.50997 0.640408 3.50878 0.515021 3.47007 0.398873C3.43135 0.282724 3.35707 0.181701 3.25775 0.110114C3.15843 0.0385273 3.0391 5.56086e-06 2.91667 5.56086e-06ZM12.6 1.86667L10.2667 0.116672C10.166 0.0404451 10.043 -0.000549383 9.91667 5.56086e-06C9.79424 5.56086e-06 9.67491 0.0385273 9.57559 0.110114C9.47627 0.181701 9.40199 0.282724 9.36327 0.398873C9.32456 0.515021 9.32337 0.640408 9.35987 0.75727C9.39637 0.874132 9.46872 0.976547 9.56667 1.05001L11.9 2.80001C12.0007 2.87631 12.1237 2.91731 12.25 2.91667C12.3724 2.91667 12.4918 2.87815 12.5911 2.80656C12.6904 2.73498 12.7647 2.63395 12.8034 2.51781C12.8421 2.40166 12.8433 2.27627 12.8068 2.15941C12.7703 2.04255 12.6979 1.94013 12.6 1.86667Z" fill="#DEDEDE"/>
</svg>
