<svg width="17" height="17" viewBox="0 0 17 17" fill="none" xmlns="http://www.w3.org/2000/svg">
<path d="M14.0698 15.9375H5.60302C4.57306 15.9375 3.73535 15.0998 3.73535 14.0698V5.60302C3.73535 4.57306 4.57306 3.73535 5.60302 3.73535H14.0698C15.0998 3.73535 15.9375 4.57306 15.9375 5.60302V14.0698C15.9375 15.0998 15.0998 15.9375 14.0698 15.9375ZM5.60302 4.98047C5.25975 4.98047 4.98047 5.25975 4.98047 5.60302V14.0698C4.98047 14.4131 5.25975 14.6924 5.60302 14.6924H14.0698C14.4131 14.6924 14.6924 14.4131 14.6924 14.0698V5.60302C14.6924 5.25975 14.4131 4.98047 14.0698 4.98047H5.60302ZM2.49023 10.957H1.86767C1.5244 10.957 1.24512 10.6777 1.24512 10.3345V1.86767C1.24512 1.5244 1.5244 1.24512 1.86767 1.24512H10.3345C10.6777 1.24512 10.957 1.5244 10.957 1.86767V2.45911H12.2021V1.86767C12.2021 0.837714 11.3644 0 10.3345 0H1.86767C0.837714 0 0 0.837714 0 1.86767V10.3345C0 11.3644 0.837714 12.2021 1.86767 12.2021H2.49023V10.957Z" fill="black"/>
</svg>
