<svg width="22" height="22" viewBox="0 0 22 22" fill="none" xmlns="http://www.w3.org/2000/svg">
<path d="M2.75 6.41665H19.25" stroke="#A2A2A7" stroke-width="1.3" stroke-linecap="round" stroke-linejoin="round"/>
<path d="M8.77249 10.0833H6.41666" stroke="#A2A2A7" stroke-width="1.3" stroke-linecap="round" stroke-linejoin="round"/>
<path d="M10.0833 15.5833H5.5C3.98108 15.5833 2.75 14.3522 2.75 12.8333V5.5C2.75 3.98108 3.98108 2.75 5.5 2.75H16.5C18.0189 2.75 19.25 3.98108 19.25 5.5V9.16667" stroke="#A2A2A7" stroke-width="1.3" stroke-linecap="round" stroke-linejoin="round"/>
<path fill-rule="evenodd" clip-rule="evenodd" d="M15.8519 18.9814L19.8981 14.9353C20.2565 14.5768 20.2565 13.9966 19.8981 13.6391L18.4443 12.1853C18.0858 11.8268 17.5056 11.8268 17.1481 12.1853L13.1019 16.2314C12.9296 16.4038 12.8333 16.6366 12.8333 16.8795V19.25H15.2038C15.4468 19.25 15.6796 19.1538 15.8519 18.9814V18.9814Z" stroke="#A2A2A7" stroke-width="1.3" stroke-linecap="round" stroke-linejoin="round"/>
</svg>
