<svg width="22" height="22" viewBox="0 0 22 22" fill="none" xmlns="http://www.w3.org/2000/svg">
<path fill-rule="evenodd" clip-rule="evenodd" d="M15.5853 16.5023V11C15.5854 10.5135 15.3922 10.0469 15.0482 9.70294C14.7042 9.35895 14.2376 9.16576 13.7512 9.16589H4.58068C4.09421 9.16576 3.62762 9.35895 3.28363 9.70294C2.93964 10.0469 2.74645 10.5135 2.74658 11V16.5023C2.74645 16.9888 2.93964 17.4553 3.28363 17.7993C3.62762 18.1433 4.09421 18.3365 4.58068 18.3364H13.7512C14.7641 18.3364 15.5853 17.5152 15.5853 16.5023Z" stroke="#A2A2A7" stroke-width="1.3" stroke-linecap="round" stroke-linejoin="round"/>
<path d="M2.74658 12.9066H15.5853" stroke="#A2A2A7" stroke-width="1.3" stroke-linecap="round" stroke-linejoin="round"/>
<path d="M5.68115 9.1659L6.79078 5.02084C6.91668 4.55107 7.22434 4.15071 7.64586 3.90812C8.06739 3.66552 8.56812 3.60065 9.03755 3.7278L17.8962 6.10295C18.366 6.22885 18.7664 6.53651 19.009 6.95803C19.2516 7.37956 19.3164 7.88029 19.1893 8.34972L17.7679 13.6594C17.5149 14.615 16.5478 15.1961 15.5853 14.9708" stroke="#A2A2A7" stroke-width="1.3" stroke-linecap="round" stroke-linejoin="round"/>
</svg>
