<svg width="15" height="16" viewBox="0 0 15 16" fill="none" xmlns="http://www.w3.org/2000/svg">
<path d="M12.267 1.023H11.4045V0.45C11.4045 0.330653 11.3571 0.216193 11.2727 0.131802C11.1883 0.0474107 11.0738 0 10.9545 0C10.8352 0 10.7207 0.0474107 10.6363 0.131802C10.5519 0.216193 10.5045 0.330653 10.5045 0.45V1.023H3.8715V0.45C3.8715 0.330653 3.82409 0.216193 3.7397 0.131802C3.65531 0.0474107 3.54085 0 3.4215 0C3.30215 0 3.18769 0.0474107 3.1033 0.131802C3.01891 0.216193 2.9715 0.330653 2.9715 0.45V1.023H2.10825C1.54922 1.02379 1.01333 1.24627 0.618104 1.64163C0.222881 2.037 0.000595205 2.57297 0 3.132V13.0417C0.00079361 13.6006 0.223167 14.1364 0.618369 14.5316C1.01357 14.9268 1.54935 15.1492 2.10825 15.15H12.267C12.8262 15.1496 13.3624 14.9273 13.7579 14.5318C14.1533 14.1364 14.3756 13.6002 14.376 13.041V3.132C14.3756 2.57278 14.1533 2.03658 13.7579 1.64115C13.3624 1.24572 12.8262 1.0234 12.267 1.023ZM13.476 13.041C13.4756 13.3615 13.3481 13.6688 13.1215 13.8955C12.8948 14.1221 12.5875 14.2496 12.267 14.25H2.10825C1.78792 14.2496 1.48083 14.1222 1.25433 13.8957C1.02782 13.6692 0.900397 13.3621 0.9 13.0417V5.376H13.4768L13.476 13.041ZM13.476 4.476H0.9V3.132C0.900199 2.81154 1.02754 2.50426 1.25406 2.27759C1.48059 2.05093 1.78779 1.9234 2.10825 1.923H2.9715V2.4405C2.9715 2.55985 3.01891 2.67431 3.1033 2.7587C3.18769 2.84309 3.30215 2.8905 3.4215 2.8905C3.54085 2.8905 3.65531 2.84309 3.7397 2.7587C3.82409 2.67431 3.8715 2.55985 3.8715 2.4405V1.923H10.5053V2.4405C10.5053 2.55985 10.5527 2.67431 10.6371 2.7587C10.7214 2.84309 10.8359 2.8905 10.9553 2.8905C11.0746 2.8905 11.1891 2.84309 11.2734 2.7587C11.3578 2.67431 11.4053 2.55985 11.4053 2.4405V1.923H12.2678C12.5881 1.9234 12.8953 2.0508 13.1219 2.27728C13.3486 2.50376 13.4762 2.81085 13.4768 3.13125L13.476 4.476ZM2.54925 8.11575C2.54925 7.93033 2.60423 7.74907 2.70725 7.5949C2.81026 7.44073 2.95668 7.32057 3.12798 7.24961C3.29929 7.17866 3.48779 7.16009 3.66965 7.19626C3.8515 7.23244 4.01855 7.32173 4.14966 7.45284C4.28078 7.58395 4.37006 7.751 4.40624 7.93285C4.44241 8.11471 4.42385 8.30321 4.35289 8.47451C4.28193 8.64582 4.16177 8.79224 4.0076 8.89525C3.85343 8.99827 3.67217 9.05325 3.48675 9.05325C3.23811 9.05325 2.99965 8.95448 2.82384 8.77866C2.64802 8.60285 2.54925 8.36439 2.54925 8.11575ZM6.2505 8.11575C6.2505 7.93033 6.30548 7.74907 6.4085 7.5949C6.51151 7.44073 6.65793 7.32057 6.82924 7.24961C7.00054 7.17866 7.18904 7.16009 7.3709 7.19626C7.55276 7.23244 7.7198 7.32173 7.85091 7.45284C7.98203 7.58395 8.07131 7.751 8.10749 7.93285C8.14366 8.11471 8.1251 8.30321 8.05414 8.47451C7.98318 8.64582 7.86302 8.79224 7.70885 8.89525C7.55468 8.99827 7.37342 9.05325 7.188 9.05325C6.93936 9.05325 6.7009 8.95448 6.52509 8.77866C6.34927 8.60285 6.2505 8.36439 6.2505 8.11575ZM9.95175 8.11575C9.95175 7.93033 10.0067 7.74907 10.1097 7.5949C10.2128 7.44073 10.3592 7.32057 10.5305 7.24961C10.7018 7.17866 10.8903 7.16009 11.0721 7.19626C11.254 7.23244 11.4211 7.32173 11.5522 7.45284C11.6833 7.58395 11.7726 7.751 11.8087 7.93285C11.8449 8.11471 11.8263 8.30321 11.7554 8.47451C11.6844 8.64582 11.5643 8.79224 11.4101 8.89525C11.2559 8.99827 11.0747 9.05325 10.8893 9.05325C10.6406 9.05325 10.4022 8.95448 10.2263 8.77866C10.0505 8.60285 9.95175 8.36439 9.95175 8.11575ZM2.54925 11.175C2.54925 10.9896 2.60423 10.8083 2.70725 10.6542C2.81026 10.5 2.95668 10.3798 3.12798 10.3089C3.29929 10.2379 3.48779 10.2193 3.66965 10.2555C3.8515 10.2917 4.01855 10.381 4.14966 10.5121C4.28078 10.6432 4.37006 10.8102 4.40624 10.9921C4.44241 11.174 4.42385 11.3625 4.35289 11.5338C4.28193 11.7051 4.16177 11.8515 4.0076 11.9545C3.85343 12.0575 3.67217 12.1125 3.48675 12.1125C3.23811 12.1125 2.99965 12.0137 2.82384 11.8379C2.64802 11.6621 2.54925 11.4236 2.54925 11.175ZM6.2505 11.175C6.2502 10.9895 6.30493 10.8081 6.40777 10.6537C6.5106 10.4994 6.65691 10.379 6.82819 10.3078C6.99947 10.2366 7.18802 10.2178 7.36998 10.2538C7.55193 10.2898 7.71912 10.379 7.85038 10.5101C7.98164 10.6411 8.07108 10.8082 8.10738 10.99C8.14367 11.1719 8.12519 11.3605 8.05428 11.5319C7.98337 11.7033 7.86321 11.8498 7.709 11.9529C7.5548 12.056 7.37348 12.111 7.188 12.111C6.93962 12.111 6.70139 12.0124 6.52562 11.8369C6.34985 11.6615 6.2509 11.4234 6.2505 11.175ZM9.95175 11.175C9.95175 10.9896 10.0067 10.8083 10.1097 10.6542C10.2128 10.5 10.3592 10.3798 10.5305 10.3089C10.7018 10.2379 10.8903 10.2193 11.0721 10.2555C11.254 10.2917 11.4211 10.381 11.5522 10.5121C11.6833 10.6432 11.7726 10.8102 11.8087 10.9921C11.8449 11.174 11.8263 11.3625 11.7554 11.5338C11.6844 11.7051 11.5643 11.8515 11.4101 11.9545C11.2559 12.0575 11.0747 12.1125 10.8893 12.1125C10.6406 12.1125 10.4022 12.0137 10.2263 11.8379C10.0505 11.6621 9.95175 11.4236 9.95175 11.175Z" fill="#C2C2C2"/>
</svg>
