<svg width="12" height="12" viewBox="0 0 12 12" fill="none" xmlns="http://www.w3.org/2000/svg">
<path d="M6.00002 0C4.81333 0 3.65329 0.351895 2.66659 1.01119C1.67989 1.67048 0.910854 2.60755 0.456727 3.70391C0.00259972 4.80027 -0.116221 6.00667 0.115291 7.17056C0.346803 8.33445 0.91825 9.40355 1.75737 10.2427C2.59648 11.0818 3.66559 11.6532 4.82948 11.8847C5.99336 12.1163 7.19977 11.9974 8.29613 11.5433C9.39249 11.0892 10.3296 10.3201 10.9889 9.33345C11.6481 8.34675 12 7.18671 12 6.00002C11.9979 4.40936 11.3651 2.88447 10.2403 1.7597C9.11557 0.634939 7.59067 0.00211664 6.00002 0ZM9.35253 4.35251L5.60252 8.10252C5.55647 8.14924 5.50159 8.18633 5.44107 8.21165C5.38056 8.23697 5.31562 8.25001 5.25002 8.25001C5.18442 8.25001 5.11948 8.23697 5.05896 8.21165C4.99845 8.18633 4.94357 8.14924 4.89752 8.10252L3.14751 6.35252C3.05402 6.25903 3.0015 6.13223 3.0015 6.00002C3.0015 5.8678 3.05402 5.74101 3.14751 5.64752C3.241 5.55403 3.3678 5.50151 3.50001 5.50151C3.63223 5.50151 3.75903 5.55403 3.85251 5.64752L5.25002 7.04252L8.64753 3.64751C8.74102 3.55402 8.86782 3.5015 9.00003 3.5015C9.13224 3.5015 9.25904 3.55402 9.35253 3.64751C9.44602 3.741 9.49854 3.8678 9.49854 4.00001C9.49854 4.13223 9.44602 4.25902 9.35253 4.35251Z" fill="#DEDEDE"/>
<path d="M9.35249 4.35248L5.60248 8.10249C5.55643 8.1492 5.50155 8.1863 5.44104 8.21162C5.38052 8.23693 5.31558 8.24997 5.24998 8.24997C5.18438 8.24997 5.11944 8.23693 5.05893 8.21162C4.99841 8.1863 4.94353 8.1492 4.89748 8.10249L3.14748 6.35248C3.05399 6.25899 3.00146 6.1322 3.00146 5.99998C3.00146 5.86777 3.05399 5.74097 3.14748 5.64748C3.24096 5.55399 3.36776 5.50147 3.49998 5.50147C3.63219 5.50147 3.75899 5.55399 3.85248 5.64748L5.24998 7.04249L8.64749 3.64748C8.74098 3.55399 8.86778 3.50146 8.99999 3.50146C9.13221 3.50146 9.25901 3.55399 9.35249 3.64748C9.44598 3.74096 9.49851 3.86776 9.49851 3.99998C9.49851 4.13219 9.44598 4.25899 9.35249 4.35248Z" fill="white"/>
</svg>
