<svg width="21" height="21" viewBox="0 0 21 21" fill="none" xmlns="http://www.w3.org/2000/svg">
<path d="M9.4108 4.35422L3.2975 14.942C3.18707 15.1332 3.12893 15.3501 3.12891 15.5709C3.12889 15.7917 3.18699 16.0086 3.29739 16.1998C3.40778 16.391 3.56656 16.5498 3.75778 16.6602C3.949 16.7706 4.16591 16.8287 4.38671 16.8287H16.6123C16.8331 16.8287 17.05 16.7706 17.2413 16.6602C17.4325 16.5498 17.5913 16.391 17.7016 16.1998C17.812 16.0086 17.8701 15.7917 17.8701 15.5709C17.8701 15.3501 17.812 15.1332 17.7015 14.942L11.5889 4.35422C11.4785 4.16306 11.3198 4.00431 11.1286 3.89394C10.9374 3.78358 10.7206 3.72547 10.4998 3.72547C10.2791 3.72547 10.0623 3.78358 9.87109 3.89394C9.67992 4.00431 9.52117 4.16306 9.4108 4.35422Z" fill="#EE404C"/>
<path d="M10.5793 7.61972H10.4199C10.0273 7.61972 9.70898 7.93799 9.70898 8.3306V11.7285C9.70898 12.1211 10.0273 12.4394 10.4199 12.4394H10.5793C10.9719 12.4394 11.2902 12.1211 11.2902 11.7285V8.3306C11.2902 7.93799 10.9719 7.61972 10.5793 7.61972Z" fill="#FFF7ED"/>
<path d="M10.4996 15.1343C10.9362 15.1343 11.2902 14.7803 11.2902 14.3437C11.2902 13.907 10.9362 13.553 10.4996 13.553C10.063 13.553 9.70898 13.907 9.70898 14.3437C9.70898 14.7803 10.063 15.1343 10.4996 15.1343Z" fill="#FFF7ED"/>
</svg>
