<svg width="22" height="22" viewBox="0 0 22 22" fill="none" xmlns="http://www.w3.org/2000/svg">
<path d="M9.33507 12.6685C8.41435 11.7478 8.41435 10.254 9.33507 9.33141C10.2558 8.41069 11.7497 8.41069 12.6722 9.33141C13.5929 10.2521 13.5929 11.746 12.6722 12.6685C11.7497 13.5911 10.2567 13.5911 9.33507 12.6685" stroke="#A2A2A7" stroke-width="1.3" stroke-linecap="round" stroke-linejoin="round"/>
<path fill-rule="evenodd" clip-rule="evenodd" d="M18.3395 11.0023C18.3395 11.5204 18.2157 12.0331 17.9764 12.5053V12.5053C16.7411 14.9392 14.012 16.5046 11.0031 16.5046C7.9943 16.5046 5.26516 14.9392 4.0299 12.5053V12.5053C3.79055 12.0331 3.66675 11.5204 3.66675 11.0023C3.66675 10.4842 3.79055 9.97153 4.0299 9.49925V9.49925C5.26516 7.0654 7.9943 5.5 11.0031 5.5C14.012 5.5 16.7411 7.0654 17.9764 9.49925V9.49925C18.2157 9.97153 18.3395 10.4842 18.3395 11.0023Z" stroke="#A2A2A7" stroke-width="1.3" stroke-linecap="round" stroke-linejoin="round"/>
</svg>
