<svg width="16" height="17" viewBox="0 0 16 17" fill="none" xmlns="http://www.w3.org/2000/svg">
<path d="M15.9317 0.607781C15.8028 0.312414 15.5799 0.16471 15.2618 0.164551H0.737807C0.420134 0.164551 0.196893 0.312414 0.0682816 0.607781C-0.0602502 0.918273 -0.00735105 1.18359 0.227217 1.40322L5.82145 7.00541V12.5281C5.82145 12.7253 5.89335 12.8955 6.03702 13.0397L8.9417 15.9485C9.07798 16.0924 9.24813 16.1646 9.45245 16.1646C9.54315 16.1646 9.63766 16.1455 9.73602 16.1076C10.0312 15.9788 10.1788 15.7554 10.1788 15.4372V7.00545L15.7728 1.40326C16.0075 1.18363 16.0602 0.918393 15.9317 0.607781Z" fill="#DEDEDE"/>
</svg>
