<svg width="24" height="18" viewBox="0 0 24 18" fill="none" xmlns="http://www.w3.org/2000/svg">
<path d="M14.9796 9.20215L16.3427 7.83903C16.4419 8.21009 16.5 8.59802 16.5 9.00002C16.5 11.4814 14.4814 13.5 12 13.5C11.598 13.5 11.2101 13.4419 10.839 13.3427L12.2021 11.9796C13.6926 11.878 14.8779 10.6926 14.9796 9.20215ZM23.9055 8.63571C23.8132 8.46977 22.5049 6.17722 19.9474 4.23435L18.8559 5.32578C20.7208 6.69697 21.9024 8.29615 22.3676 9.00115C21.4787 10.3547 17.9916 15 12 15C11.1015 15 10.266 14.8851 9.47981 14.7017L8.24738 15.9341C9.38044 16.2816 10.6258 16.5 12 16.5C19.8512 16.5 23.7437 9.65552 23.9055 9.36433C24.0315 9.13765 24.0315 8.8624 23.9055 8.63571ZM20.7803 1.28029L4.28025 17.7803C4.13381 17.9267 3.94181 18 3.75 18C3.55819 18 3.36619 17.9267 3.21975 17.7803C2.92669 17.4872 2.92669 17.0126 3.21975 16.7198L5.319 14.6205C1.92525 12.5717 0.200812 9.55577 0.0945 9.36433C-0.0315 9.13765 -0.0315 8.86221 0.0945 8.63552C0.256312 8.34452 4.14881 1.50004 12 1.50004C14.0301 1.50004 15.7884 1.96317 17.2916 2.64791L19.7197 0.219796C20.0128 -0.0732654 20.4874 -0.0732654 20.7803 0.219796C21.0731 0.512858 21.0733 0.987419 20.7803 1.28029ZM6.43744 13.5021L8.33625 11.6033C7.81181 10.8675 7.5 9.97033 7.5 9.00002C7.5 6.51865 9.51863 4.50003 12 4.50003C12.9703 4.50003 13.8675 4.81185 14.6033 5.3361L16.1387 3.80066C14.9256 3.31485 13.5471 3.00004 12 3.00004C6.00844 3.00004 2.52131 7.64534 1.63256 8.9989C2.19694 9.85427 3.81919 12.0195 6.43744 13.5021ZM9.42506 10.5143L13.5142 6.42509C13.0682 6.16165 12.5546 6.00003 12 6.00003C10.3459 6.00003 9 7.3459 9 9.00002C9 9.55465 9.16162 10.0682 9.42506 10.5143Z" fill="#B1B1B1"/>
</svg>
