<svg width="22" height="19" viewBox="0 0 22 19" fill="none" xmlns="http://www.w3.org/2000/svg">
<path d="M0.6513 8.34768C0.291593 8.34768 0 8.59936 0 8.90974V17.165C0 17.4754 0.291636 17.7271 0.6513 17.7271H4.57531V8.34768H0.6513ZM22 11.4515C22 10.738 21.5558 10.1123 20.8934 9.76964C21.1561 9.44288 21.2966 9.05459 21.296 8.65691C21.296 7.57655 20.2775 6.69758 19.0256 6.69758H14.2327C14.3796 6.12312 14.5805 5.26111 14.7204 4.35872C15.0845 2.0104 14.8357 0.708049 13.9375 0.260176C13.3775 -0.0189974 12.7738 -0.0756263 12.2375 0.100569C11.8232 0.23676 11.2636 0.571598 10.9448 1.39339L9.68508 4.23971C9.04647 5.60077 7.09081 7.02967 5.87795 7.81976V17.9758C8.12581 18.6555 10.4714 19 12.8645 19H18.0868C19.3387 19 20.3573 18.121 20.3573 17.0407C20.3578 16.676 20.2396 16.3185 20.0163 16.0089C20.7731 15.6908 21.2959 15.0201 21.2959 14.2461C21.2965 13.8484 21.156 13.4601 20.8934 13.1333C21.5558 12.7907 22 12.165 22 11.4515Z" fill="#67B96B"/>
</svg>
