<svg width="22" height="22" viewBox="0 0 22 22" fill="none" xmlns="http://www.w3.org/2000/svg">
<path d="M7.33325 9.16667V6.41667V6.41667C7.33325 4.39175 8.975 2.75 10.9999 2.75V2.75C13.0248 2.75 14.6666 4.39175 14.6666 6.41667V6.41667V9.16667" stroke="#A2A2A7" stroke-width="1.3" stroke-linecap="round" stroke-linejoin="round"/>
<path fill-rule="evenodd" clip-rule="evenodd" d="M15.5833 19.25H6.41659C5.40367 19.25 4.58325 18.4296 4.58325 17.4167V11C4.58325 9.9871 5.40367 9.16669 6.41659 9.16669H15.5833C16.5962 9.16669 17.4166 9.9871 17.4166 11V17.4167C17.4166 18.4296 16.5962 19.25 15.5833 19.25Z" stroke="#A2A2A7" stroke-width="1.3" stroke-linecap="round" stroke-linejoin="round"/>
<path d="M8.25008 14.2459C8.24733 14.2459 8.2455 14.2478 8.2455 14.2505C8.2455 14.2533 8.24733 14.2551 8.25008 14.2551C8.25283 14.2551 8.25466 14.2533 8.25466 14.2505C8.25466 14.2478 8.25283 14.2459 8.25008 14.2459" stroke="#A2A2A7" stroke-width="1.5" stroke-linecap="round" stroke-linejoin="round"/>
<path d="M11.0045 14.2459C11.0017 14.2459 10.9999 14.2478 10.9999 14.2505C10.9999 14.2533 11.0026 14.2551 11.0045 14.2551C11.0072 14.2551 11.0091 14.2533 11.0091 14.2505C11.0091 14.2478 11.0072 14.2459 11.0045 14.2459" stroke="#A2A2A7" stroke-width="1.5" stroke-linecap="round" stroke-linejoin="round"/>
<path d="M13.7501 14.2459C13.7473 14.2459 13.7455 14.2478 13.7455 14.2505C13.7455 14.2533 13.7473 14.2551 13.7501 14.2551C13.7528 14.2551 13.7547 14.2533 13.7547 14.2505C13.7547 14.2478 13.7528 14.2459 13.7501 14.2459" stroke="#A2A2A7" stroke-width="1.5" stroke-linecap="round" stroke-linejoin="round"/>
</svg>
