<svg width="21" height="21" viewBox="0 0 21 21" fill="none" xmlns="http://www.w3.org/2000/svg">
<path d="M10.5 0C8.4233 0 6.39323 0.615814 4.66652 1.76957C2.9398 2.92332 1.59399 4.5632 0.799269 6.48182C0.00454959 8.40045 -0.203386 10.5116 0.201759 12.5484C0.606904 14.5852 1.60693 16.4562 3.07538 17.9246C4.54383 19.3931 6.41475 20.3931 8.45155 20.7982C10.4884 21.2034 12.5996 20.9954 14.5182 20.2007C16.4368 19.406 18.0767 18.0602 19.2304 16.3335C20.3842 14.6068 21 12.5767 21 10.5C20.9967 7.71625 19.8893 5.04747 17.9209 3.07906C15.9525 1.11065 13.2838 0.0033345 10.5 0ZM9.8 4.9C9.8 4.71435 9.87375 4.5363 10.005 4.40502C10.1363 4.27375 10.3144 4.2 10.5 4.2C10.6857 4.2 10.8637 4.27375 10.995 4.40502C11.1263 4.5363 11.2 4.71435 11.2 4.9V9.8C11.2 9.98565 11.1263 10.1637 10.995 10.295C10.8637 10.4262 10.6857 10.5 10.5 10.5C10.3144 10.5 10.1363 10.4262 10.005 10.295C9.87375 10.1637 9.8 9.98565 9.8 9.8V4.9ZM10.5 16.8C8.82993 16.7974 7.22901 16.1328 6.04809 14.9519C4.86718 13.771 4.2026 12.1701 4.2 10.5C4.19694 9.55529 4.40829 8.6222 4.81812 7.77101C5.22795 6.91983 5.82558 6.17273 6.566 5.586C6.63649 5.51946 6.72003 5.46829 6.81133 5.43573C6.90263 5.40316 6.99969 5.38991 7.09638 5.39682C7.19306 5.40373 7.28726 5.43064 7.373 5.47585C7.45874 5.52106 7.53416 5.58359 7.59448 5.65947C7.65479 5.73535 7.69869 5.82293 7.72339 5.91666C7.74809 6.01039 7.75306 6.10823 7.73797 6.20398C7.72288 6.29973 7.68808 6.39131 7.63575 6.4729C7.58343 6.5545 7.51473 6.62434 7.434 6.678C6.6424 7.31298 6.06747 8.17808 5.78862 9.15382C5.50977 10.1296 5.54075 11.1678 5.87728 12.1252C6.21382 13.0826 6.8393 13.9119 7.66736 14.4985C8.49542 15.0852 9.48519 15.4003 10.5 15.4003C11.5148 15.4003 12.5046 15.0852 13.3326 14.4985C14.1607 13.9119 14.7862 13.0826 15.1227 12.1252C15.4593 11.1678 15.4902 10.1296 15.2114 9.15382C14.9325 8.17808 14.3576 7.31298 13.566 6.678C13.4385 6.55762 13.3608 6.39376 13.3483 6.21884C13.3358 6.04391 13.3894 5.87067 13.4985 5.73339C13.6076 5.5961 13.7643 5.50478 13.9376 5.47749C14.1108 5.45019 14.288 5.48892 14.434 5.586C15.1744 6.17273 15.7721 6.91983 16.1819 7.77101C16.5917 8.6222 16.8031 9.55529 16.8 10.5C16.7974 12.1701 16.1328 13.771 14.9519 14.9519C13.771 16.1328 12.1701 16.7974 10.5 16.8Z" fill="#B1B1B1"/>
</svg>
