<svg width="17" height="19" viewBox="0 0 17 19" fill="none" xmlns="http://www.w3.org/2000/svg">
<path fill-rule="evenodd" clip-rule="evenodd" d="M10.5279 17.9594L14.6942 17.0285C15.4573 16.8589 16.0001 16.1786 16.0001 15.3938V3.6062C16.0001 2.82136 15.4573 2.14111 14.6951 1.97151L10.5289 1.04064C9.48731 0.807923 8.50012 1.60407 8.50012 2.67627V16.3247C8.50012 17.3959 9.48731 18.1921 10.5279 17.9594V17.9594Z" stroke="#1E1E2D" stroke-width="1.3" stroke-linecap="round" stroke-linejoin="round"/>
<path d="M11.3123 8.5188V10.4032" stroke="#1E1E2D" stroke-width="1.3" stroke-linecap="round" stroke-linejoin="round"/>
<path d="M1 13.2485V15.1725C1 16.2136 1.83906 17.0568 2.875 17.0568H5.6875" stroke="#1E1E2D" stroke-width="1.3" stroke-linecap="round" stroke-linejoin="round"/>
<path d="M1 5.71122V3.82686C1 2.78576 1.83906 1.9425 2.875 1.9425H5.6875" stroke="#1E1E2D" stroke-width="1.3" stroke-linecap="round" stroke-linejoin="round"/>
<path d="M1 9.4797H5.6875" stroke="#1E1E2D" stroke-width="1.3" stroke-linecap="round" stroke-linejoin="round"/>
<path d="M3.81268 11.3642L5.68768 9.47982L3.81268 7.59546" stroke="#1E1E2D" stroke-width="1.3" stroke-linecap="round" stroke-linejoin="round"/>
</svg>
