<svg width="19" height="15" viewBox="0 0 19 15" fill="none" xmlns="http://www.w3.org/2000/svg">
<path d="M17.8125 14.25H1.18751C0.531641 14.25 0 13.7183 0 13.0625C0 12.4067 0.531641 11.875 1.18751 11.875H17.8125C18.4683 11.875 19 12.4067 19 13.0625C19 13.7183 18.4683 14.25 17.8125 14.25ZM17.8125 8.31249H1.18751C0.531641 8.31249 0 7.78085 0 7.12503C0 6.46921 0.531641 5.93752 1.18751 5.93752H17.8125C18.4683 5.93752 19 6.46917 19 7.12503C19 7.78089 18.4683 8.31249 17.8125 8.31249ZM17.8125 2.37501H1.18751C0.531641 2.37501 0 1.84337 0 1.18751C0 0.531641 0.531641 0 1.18751 0H17.8125C18.4683 0 19 0.531641 19 1.18751C19 1.84337 18.4683 2.37501 17.8125 2.37501Z" fill="#3628B2"/>
</svg>
