<svg width="25" height="25" viewBox="0 0 25 25" fill="none" xmlns="http://www.w3.org/2000/svg">
<path d="M22.607 6.45898C22.6584 6.11074 22.6842 5.7602 22.6842 5.40933C22.6842 2.42188 19.7844 0 16.2074 0H5.38322C4.70235 0 4.12105 0.410644 4.00809 0.971387L0.019679 20.77C-0.123441 21.4804 0.532291 22.1278 1.39481 22.1278H5.35347C6.03434 22.1278 6.62658 21.7175 6.73947 21.1567L6.75801 21.0646H6.75806L6.2064 23.8032C6.08035 24.4293 6.65827 25 7.41847 25H10.8817C11.4818 25 11.9942 24.638 12.0937 24.1438L13.0776 19.26C13.2472 18.4181 14.1199 17.8017 15.142 17.8017H16.0519C20.9938 17.8017 25 14.4557 25 10.3283C25 8.7312 24.0548 7.31943 22.607 6.45898Z" fill="#002987"/>
<path d="M22.607 6.45898C21.9877 10.6669 17.6935 13.9253 12.4877 13.9253H9.4672C8.78545 13.9253 8.19666 14.3045 8.01197 14.8408L6.20648 23.8031C6.08038 24.4293 6.65829 25 7.4185 25H10.8817C11.4819 25 11.9942 24.638 12.0937 24.1438L13.0776 19.26C13.2472 18.4181 14.1199 17.8017 15.1421 17.8017H16.0519C20.9938 17.8017 25 14.4557 25 10.3283C25 8.7312 24.0548 7.31943 22.607 6.45898Z" fill="#0085CC"/>
<path d="M9.46713 13.9251H12.4877C17.6935 13.9251 21.9877 10.6668 22.607 6.45889C21.6781 5.90684 20.543 5.58105 19.316 5.58105H11.4322C10.5346 5.58105 9.76816 6.12241 9.61919 6.86167L8.01184 14.8406C8.19653 14.3043 8.78538 13.9251 9.46713 13.9251Z" fill="#00186A"/>
</svg>
