<svg width="49" height="11" viewBox="0 0 49 11" fill="none" xmlns="http://www.w3.org/2000/svg">
<path d="M4.772 10L2.614 6.295H1.184V10H0.00100009V0.939H2.926C3.61067 0.939 4.187 1.056 4.655 1.29C5.13167 1.524 5.487 1.84033 5.721 2.239C5.955 2.63767 6.072 3.09267 6.072 3.604C6.072 4.228 5.89 4.77833 5.526 5.255C5.17067 5.73167 4.63333 6.048 3.914 6.204L6.189 10H4.772ZM1.184 5.346H2.926C3.56733 5.346 4.04833 5.19 4.369 4.878C4.68967 4.55733 4.85 4.13267 4.85 3.604C4.85 3.06667 4.68967 2.65067 4.369 2.356C4.057 2.06133 3.576 1.914 2.926 1.914H1.184V5.346ZM14.4102 6.165C14.4102 6.39033 14.3972 6.62867 14.3712 6.88H8.67718C8.72051 7.582 8.95885 8.13233 9.39218 8.531C9.83418 8.921 10.3672 9.116 10.9912 9.116C11.5025 9.116 11.9272 8.999 12.2652 8.765C12.6118 8.52233 12.8545 8.20167 12.9932 7.803H14.2672C14.0765 8.48767 13.6952 9.04667 13.1232 9.48C12.5512 9.90467 11.8405 10.117 10.9912 10.117C10.3152 10.117 9.70851 9.96533 9.17118 9.662C8.64251 9.35867 8.22651 8.92967 7.92318 8.375C7.61985 7.81167 7.46818 7.16167 7.46818 6.425C7.46818 5.68833 7.61551 5.04267 7.91018 4.488C8.20485 3.93333 8.61651 3.50867 9.14518 3.214C9.68251 2.91067 10.2978 2.759 10.9912 2.759C11.6672 2.759 12.2652 2.90633 12.7852 3.201C13.3052 3.49567 13.7038 3.903 13.9812 4.423C14.2672 4.93433 14.4102 5.515 14.4102 6.165ZM13.1882 5.918C13.1882 5.46733 13.0885 5.08167 12.8892 4.761C12.6898 4.43167 12.4168 4.18467 12.0702 4.02C11.7322 3.84667 11.3552 3.76 10.9392 3.76C10.3412 3.76 9.82985 3.95067 9.40518 4.332C8.98918 4.71333 8.75085 5.242 8.69018 5.918H13.1882ZM15.5297 6.425C15.5297 5.68833 15.677 5.047 15.9717 4.501C16.2664 3.94633 16.6737 3.51733 17.1937 3.214C17.7224 2.91067 18.3247 2.759 19.0007 2.759C19.876 2.759 20.5954 2.97133 21.1587 3.396C21.7307 3.82067 22.1077 4.41 22.2897 5.164H21.0157C20.8944 4.73067 20.656 4.38833 20.3007 4.137C19.954 3.88567 19.5207 3.76 19.0007 3.76C18.3247 3.76 17.7787 3.994 17.3627 4.462C16.9467 4.92133 16.7387 5.57567 16.7387 6.425C16.7387 7.283 16.9467 7.946 17.3627 8.414C17.7787 8.882 18.3247 9.116 19.0007 9.116C19.5207 9.116 19.954 8.99467 20.3007 8.752C20.6474 8.50933 20.8857 8.16267 21.0157 7.712H22.2897C22.099 8.44 21.7177 9.025 21.1457 9.467C20.5737 9.90033 19.8587 10.117 19.0007 10.117C18.3247 10.117 17.7224 9.96533 17.1937 9.662C16.6737 9.35867 16.2664 8.92967 15.9717 8.375C15.677 7.82033 15.5297 7.17033 15.5297 6.425ZM30.3682 6.165C30.3682 6.39033 30.3552 6.62867 30.3292 6.88H24.6352C24.6785 7.582 24.9169 8.13233 25.3502 8.531C25.7922 8.921 26.3252 9.116 26.9492 9.116C27.4605 9.116 27.8852 8.999 28.2232 8.765C28.5699 8.52233 28.8125 8.20167 28.9512 7.803H30.2252C30.0345 8.48767 29.6532 9.04667 29.0812 9.48C28.5092 9.90467 27.7985 10.117 26.9492 10.117C26.2732 10.117 25.6665 9.96533 25.1292 9.662C24.6005 9.35867 24.1845 8.92967 23.8812 8.375C23.5779 7.81167 23.4262 7.16167 23.4262 6.425C23.4262 5.68833 23.5735 5.04267 23.8682 4.488C24.1629 3.93333 24.5745 3.50867 25.1032 3.214C25.6405 2.91067 26.2559 2.759 26.9492 2.759C27.6252 2.759 28.2232 2.90633 28.7432 3.201C29.2632 3.49567 29.6619 3.903 29.9392 4.423C30.2252 4.93433 30.3682 5.515 30.3682 6.165ZM29.1462 5.918C29.1462 5.46733 29.0465 5.08167 28.8472 4.761C28.6479 4.43167 28.3749 4.18467 28.0282 4.02C27.6902 3.84667 27.3132 3.76 26.8972 3.76C26.2992 3.76 25.7879 3.95067 25.3632 4.332C24.9472 4.71333 24.7089 5.242 24.6482 5.918H29.1462ZM32.5407 1.719C32.3154 1.719 32.1247 1.641 31.9687 1.485C31.8127 1.329 31.7347 1.13833 31.7347 0.912999C31.7347 0.687666 31.8127 0.497 31.9687 0.341C32.1247 0.185 32.3154 0.107 32.5407 0.107C32.7574 0.107 32.9394 0.185 33.0867 0.341C33.2427 0.497 33.3207 0.687666 33.3207 0.912999C33.3207 1.13833 33.2427 1.329 33.0867 1.485C32.9394 1.641 32.7574 1.719 32.5407 1.719ZM33.1127 2.876V10H31.9297V2.876H33.1127ZM37.7809 8.908L39.9909 2.876H41.2519L38.4569 10H37.0789L34.2839 2.876H35.5579L37.7809 8.908ZM48.916 6.165C48.916 6.39033 48.903 6.62867 48.877 6.88H43.183C43.2264 7.582 43.4647 8.13233 43.898 8.531C44.34 8.921 44.873 9.116 45.497 9.116C46.0084 9.116 46.433 8.999 46.771 8.765C47.1177 8.52233 47.3604 8.20167 47.499 7.803H48.773C48.5824 8.48767 48.201 9.04667 47.629 9.48C47.057 9.90467 46.3464 10.117 45.497 10.117C44.821 10.117 44.2144 9.96533 43.677 9.662C43.1484 9.35867 42.7324 8.92967 42.429 8.375C42.1257 7.81167 41.974 7.16167 41.974 6.425C41.974 5.68833 42.1214 5.04267 42.416 4.488C42.7107 3.93333 43.1224 3.50867 43.651 3.214C44.1884 2.91067 44.8037 2.759 45.497 2.759C46.173 2.759 46.771 2.90633 47.291 3.201C47.811 3.49567 48.2097 3.903 48.487 4.423C48.773 4.93433 48.916 5.515 48.916 6.165ZM47.694 5.918C47.694 5.46733 47.5944 5.08167 47.395 4.761C47.1957 4.43167 46.9227 4.18467 46.576 4.02C46.238 3.84667 45.861 3.76 45.445 3.76C44.847 3.76 44.3357 3.95067 43.911 4.332C43.495 4.71333 43.2567 5.242 43.196 5.918H47.694Z" fill="#1E1E2D"/>
</svg>
