<svg width="16" height="16" viewBox="0 0 16 16" fill="none" xmlns="http://www.w3.org/2000/svg">
<g clip-path="url(#clip0_166_108)">
<path d="M6.18192 12.3587C7.55482 12.3587 8.88845 11.9007 9.97156 11.0571L14.0578 15.1433C14.3631 15.4381 14.8495 15.4297 15.1443 15.1244C15.4319 14.8266 15.4319 14.3546 15.1443 14.0568L11.058 9.97057C13.1514 7.27583 12.6639 3.39429 9.9692 1.30091C7.27445 -0.792466 3.39295 -0.30499 1.29957 2.38976C-0.793809 5.0845 -0.306333 8.96604 2.38841 11.0594C3.47329 11.9022 4.80812 12.3594 6.18192 12.3587ZM2.89865 2.89763C4.71197 1.08428 7.65193 1.08425 9.46528 2.89757C11.2786 4.71088 11.2787 7.65085 9.46535 9.46419C7.65203 11.2775 4.71207 11.2776 2.89872 9.46426C2.89869 9.46423 2.89869 9.46423 2.89865 9.46419C1.08534 7.66409 1.07465 4.73484 2.87476 2.92153C2.88271 2.91354 2.89067 2.90559 2.89865 2.89763Z" fill="#DEDEDE"/>
</g>
<defs>
<clipPath id="clip0_166_108">
<rect width="16" height="16" fill="white"/>
</clipPath>
</defs>
</svg>
