<svg width="27" height="27" viewBox="0 0 27 27" fill="none" xmlns="http://www.w3.org/2000/svg">
<g clip-path="url(#clip0_227_310)">
<path d="M2.95685 14.8405L22.9618 24.9729C23.154 25.0702 23.3679 25.117 23.5832 25.1088C23.7985 25.1006 24.0081 25.0378 24.1925 24.9263C24.3768 24.8147 24.5297 24.6581 24.6368 24.4711C24.7439 24.2842 24.8017 24.0731 24.8047 23.8577L24.8052 23.8212C24.8077 23.6509 24.7892 23.4809 24.7503 23.3151L22.9328 15.5537C22.9084 15.4503 22.853 15.3569 22.774 15.2859C22.695 15.2149 22.5962 15.1697 22.4908 15.1565L14.009 14.0848C13.8679 14.0656 13.7387 13.9955 13.6458 13.8876C13.5529 13.7796 13.5028 13.6414 13.5049 13.499C13.507 13.3567 13.5613 13.22 13.6573 13.1149C13.7534 13.0098 13.8846 12.9435 14.0262 12.9286L22.5363 12.111C22.642 12.1009 22.7422 12.0587 22.8233 11.9901C22.9044 11.9215 22.9626 11.8297 22.99 11.7271L25.0387 4.02456C25.0826 3.85998 25.1061 3.69064 25.1088 3.52034L25.1093 3.48389C25.1125 3.26855 25.061 3.05592 24.9594 2.866C24.8579 2.67608 24.7097 2.5151 24.5288 2.39821C24.3479 2.28133 24.1403 2.21237 23.9254 2.19782C23.7106 2.18327 23.4955 2.22361 23.3005 2.31505L3.00267 11.845C2.71999 11.9777 2.48028 12.1872 2.31087 12.4495C2.14146 12.7118 2.04916 13.0165 2.04449 13.3287C2.03982 13.641 2.12297 13.9483 2.28447 14.2156C2.44596 14.4828 2.67826 14.6994 2.95685 14.8405Z" fill="#3628B2"/>
</g>
<defs>
<clipPath id="clip0_227_310">
<rect width="25" height="25" fill="white" transform="translate(25.8117 26.1854) rotate(-179.143)"/>
</clipPath>
</defs>
</svg>
