<svg width="16" height="22" viewBox="0 0 16 22" fill="none" xmlns="http://www.w3.org/2000/svg">
<g style="mix-blend-mode:overlay">
<path d="M13.7811 0.558619C13.5043 0.0372721 12.8714 -0.153146 12.3676 0.133308C11.8638 0.419762 11.6798 1.07461 11.9566 1.59596C13.4196 4.35121 15.5301 11.9103 11.9343 19.5012C11.6812 20.0353 11.8946 20.6806 12.4107 20.9424C12.9269 21.2043 13.5504 20.9835 13.8035 20.4494C17.7774 12.0602 15.4722 3.74367 13.7811 0.558619Z" fill="#E7E7E9"/>
<path d="M9.82325 2.45104C9.56351 1.92037 8.93723 1.70806 8.42441 1.97685C7.9116 2.24563 7.70644 2.89372 7.96617 3.42439C9.10732 5.75586 10.7179 11.933 7.96375 17.6332C7.70667 18.1652 7.91507 18.8122 8.42923 19.0783C8.94339 19.3443 9.5686 19.1286 9.82568 18.5966C12.9759 12.0767 11.1423 5.14598 9.82325 2.45104Z" fill="#E7E7E9"/>
<path d="M6.1255 4.78608C5.85777 4.25968 5.22835 4.05754 4.71966 4.33459C4.21097 4.61165 4.01563 5.26298 4.28337 5.78938C4.69385 6.59644 5.2209 8.11327 5.37405 9.90866C5.52641 11.6947 5.30403 13.69 4.29863 15.528C4.01546 16.0457 4.19145 16.7029 4.69171 16.996C5.19197 17.289 5.82707 17.1069 6.11024 16.5892C7.37577 14.2756 7.62651 11.8156 7.44769 9.71924C7.26966 7.63221 6.66124 5.83944 6.1255 4.78608Z" fill="#E7E7E9"/>
<path d="M1.9509 7.01674C1.67173 6.49674 1.03806 6.30939 0.535557 6.59828C0.0330527 6.88717 -0.147996 7.5429 0.131173 8.0629C0.385197 8.53607 0.714774 9.4139 0.809618 10.3982C0.90372 11.3747 0.760098 12.3604 0.194065 13.1805C-0.140057 13.6645 -0.0317131 14.3372 0.436057 14.683C0.903828 15.0287 1.55389 14.9166 1.88801 14.4326C2.83594 13.0593 3.00773 11.4991 2.88104 10.1844C2.7551 8.87742 2.3277 7.71858 1.9509 7.01674Z" fill="#E7E7E9"/>
</g>
</svg>
