<svg width="21" height="21" viewBox="0 0 21 21" fill="none" xmlns="http://www.w3.org/2000/svg">
<path d="M12.685 6.73008V4.11943H18.3383V0H2.64586V4.11943H8.31498V6.73008C3.56555 6.97007 0 7.97175 0 9.17169C0 10.3716 3.56158 11.3671 8.31498 11.6133V20.2299H12.685V11.6133C17.4344 11.3754 21 10.3737 21 9.17169C21 7.96966 17.4384 6.97007 12.685 6.73008ZM10.5 10.8328C5.35726 10.8328 1.18785 9.99808 1.18785 8.99222C1.18785 8.12618 4.22503 7.39996 8.31101 7.20588V10.1546C9.01419 10.188 9.74518 10.2068 10.496 10.2068C11.2469 10.2068 11.9818 10.188 12.681 10.1546V7.20588C16.767 7.39996 19.8042 8.12618 19.8042 8.99222C19.8121 10.0085 15.6427 10.8328 10.5 10.8328Z" fill="black"/>
</svg>
