<svg width="22" height="22" viewBox="0 0 22 22" fill="none" xmlns="http://www.w3.org/2000/svg">
<path d="M16.8337 5.16637C20.0555 8.3882 20.0555 13.6118 16.8337 16.8336C13.6118 20.0554 8.38824 20.0554 5.16643 16.8336C1.9446 13.6118 1.9446 8.38818 5.16643 5.16637C8.38826 1.94454 13.6119 1.94454 16.8337 5.16637" stroke="#A2A2A7" stroke-width="1.3" stroke-linecap="round" stroke-linejoin="round"/>
<path d="M12.8234 7.63025C13.8304 8.63724 13.8304 10.2699 12.8234 11.2769C11.8164 12.2839 10.1837 12.2839 9.17669 11.2769C8.1697 10.2699 8.1697 8.63724 9.17669 7.63025C10.1837 6.62325 11.8164 6.62325 12.8234 7.63025" stroke="#A2A2A7" stroke-width="1.3" stroke-linecap="round" stroke-linejoin="round"/>
<path d="M16.2314 17.3782C14.916 15.9931 13.0607 15.125 11 15.125C8.93934 15.125 7.084 15.9931 5.76859 17.3791" stroke="#A2A2A7" stroke-width="1.3" stroke-linecap="round" stroke-linejoin="round"/>
</svg>
