<svg width="17" height="21" viewBox="0 0 17 21" fill="none" xmlns="http://www.w3.org/2000/svg">
<path d="M8.28416 9.71298C9.61851 9.71298 10.774 9.23437 11.7181 8.2901C12.6622 7.34603 13.1408 6.19086 13.1408 4.85635C13.1408 3.52224 12.6622 2.36696 11.7179 1.42253C10.7737 0.478574 9.61835 0 8.28416 0C6.94961 0 5.79441 0.478574 4.85033 1.42269C3.90626 2.3668 3.42749 3.52212 3.42749 4.85635C3.42749 6.19086 3.90622 7.34618 4.85049 8.2903C5.79476 9.23425 6.95008 9.71298 8.28416 9.71298ZM16.782 15.5049C16.7547 15.1121 16.6996 14.6834 16.6186 14.2309C16.5367 13.7749 16.4314 13.3438 16.3052 12.9499C16.1749 12.5426 15.9977 12.1406 15.7787 11.7552C15.5513 11.3552 15.2842 11.0069 14.9845 10.7203C14.6711 10.4205 14.2875 10.1794 13.8438 10.0035C13.4017 9.82869 12.9117 9.74008 12.3876 9.74008C12.1817 9.74008 11.9827 9.82451 11.5983 10.0748C11.325 10.2528 11.0509 10.4295 10.776 10.6049C10.5119 10.7732 10.154 10.9309 9.71204 11.0737C9.28084 11.2132 8.84303 11.284 8.41089 11.284C7.97879 11.284 7.54109 11.2132 7.10942 11.0737C6.66794 10.931 6.31012 10.7734 6.04626 10.6051C5.74025 10.4095 5.4634 10.2311 5.22324 10.0746C4.83927 9.82436 4.64003 9.73988 4.43422 9.73988C3.90992 9.73988 3.42012 9.82865 2.97814 10.0037C2.53477 10.1793 2.15095 10.4203 1.83727 10.7205C1.53777 11.0072 1.27056 11.3553 1.04348 11.7552C0.824591 12.1405 0.647371 12.5425 0.516897 12.95C0.390873 13.344 0.285526 13.7749 0.203689 14.2309C0.122601 14.6828 0.0675444 15.1116 0.0402918 15.5054C0.0131818 15.9017 -0.000255518 16.2989 3.67886e-06 16.6961C3.67886e-06 17.7487 0.334596 18.6007 0.994408 19.2292C1.64607 19.8493 2.5083 20.1639 3.55686 20.1639H13.2659C14.3144 20.1639 15.1763 19.8495 15.8282 19.2292C16.4881 18.6012 16.8227 17.749 16.8227 16.6959C16.8226 16.2897 16.8089 15.8889 16.782 15.5049Z" fill="#B1B1B1"/>
</svg>
