<svg width="17" height="17" viewBox="0 0 17 17" fill="none" xmlns="http://www.w3.org/2000/svg">
<g clip-path="url(#clip0_121_280)">
<path d="M17 8.5C17 13.1927 13.1806 17 8.46805 17C4.11528 17 0.523611 13.753 0 9.55835V7.44165C0.519444 3.27881 4.06111 0.0484212 8.36944 0H8.56528C13.2333 0.0525716 17 3.83773 17 8.5Z" fill="#E63329"/>
<path d="M8.53471 13.2384C6.19165 13.2467 3.75138 11.2546 3.74027 8.05322C3.73332 5.93652 4.88054 3.89868 6.34582 2.69092C7.77499 1.51359 9.73193 0.755452 11.5069 0.748535C11.7361 0.748535 11.9764 0.767904 12.1236 0.816325C10.5708 1.13867 9.33471 2.57886 9.33888 4.20996C9.33888 4.26392 9.34443 4.32202 9.35138 4.34831C11.9486 4.97917 13.1278 6.5411 13.1361 8.70068C13.1417 10.863 11.4292 13.2301 8.53471 13.2384Z" fill="white"/>
</g>
<defs>
<clipPath id="clip0_121_280">
<rect width="17" height="17" fill="white"/>
</clipPath>
</defs>
</svg>
