<svg width="24" height="24" viewBox="0 0 24 24" fill="none" xmlns="http://www.w3.org/2000/svg">
<path d="M7.5 7.74988C7.08579 7.74988 6.75 8.08566 6.75 8.49988C6.75 8.91409 7.08579 9.24988 7.5 9.24988H12C12.4142 9.24988 12.75 8.91409 12.75 8.49988C12.75 8.08566 12.4142 7.74988 12 7.74988H7.5Z" fill="#8B8B94"/>
<path d="M18.5 12.7499C18.5 13.1641 18.1642 13.4999 17.75 13.4999C17.3358 13.4999 17 13.1641 17 12.7499C17 12.3357 17.3358 11.9999 17.75 11.9999C18.1642 11.9999 18.5 12.3357 18.5 12.7499Z" fill="#8B8B94"/>
<path fill-rule="evenodd" clip-rule="evenodd" d="M2 8.99988C2 5.68617 4.68629 2.99988 8 2.99988H16C19.3137 2.99988 22 5.68617 22 8.99988V15.9999C22 19.3136 19.3137 21.9999 16 21.9999H8C4.68629 21.9999 2 19.3136 2 15.9999V8.99988ZM8 4.49988H16C18.4853 4.49988 20.5 6.5146 20.5 8.99988V9.18445H17.9865C15.8974 9.18445 14.2038 10.878 14.2038 12.9672C14.2038 15.0563 15.8974 16.7499 17.9865 16.7499H20.4378C20.0807 18.8782 18.2297 20.4999 16 20.4999H8C5.51472 20.4999 3.5 18.4852 3.5 15.9999V8.99988C3.5 6.5146 5.51472 4.49988 8 4.49988ZM20.5 15.2499V10.6844H17.9865C16.7258 10.6844 15.7038 11.7065 15.7038 12.9672C15.7038 14.2279 16.7258 15.2499 17.9865 15.2499H20.5Z" fill="#8B8B94"/>
</svg>
